HIERARCHY
ROOT Hips
{
  OFFSET 0 0 0
  CHANNELS 6 Xposition Yposition Zposition Zrotation Yrotation Xrotation
  JOINT LeftThigh
  {
    OFFSET 8.409438 0 -5.917753
    CHANNELS 3 Zrotation Yrotation Xrotation
    JOINT LeftLeg
    {
      OFFSET 0 0 -42.358652
      CHANNELS 3 Zrotation Yrotation Xrotation
      JOINT LeftFoot
      {
        OFFSET 0 0 -39.357303
        CHANNELS 3 Zrotation Yrotation Xrotation
      }
    }
  }
  JOINT RightThigh
  {
    OFFSET -8.409438 0 -5.917753
    CHANNELS 3 Zrotation Yrotation Xrotation
    JOINT RightLeg
    {
      OFFSET 0 0 -42.358652
      CHANNELS 3 Zrotation Yrotation Xrotation
      JOINT RightFoot
      {
        OFFSET 0 0 -39.357303
        CHANNELS 3 Zrotation Yrotation Xrotation
      }
    }
  }
  JOINT SpineLow
  {
    OFFSET 0 0 4.719101
    CHANNELS 3 Zrotation Yrotation Xrotation
    JOINT SpineMid
    {
      OFFSET 0 0 12.899191
      CHANNELS 3 Zrotation Yrotation Xrotation
      JOINT Chest
      {
        OFFSET 0 0 12.899191
        CHANNELS 3 Zrotation Yrotation Xrotation
        JOINT LeftShoulder
        {
          OFFSET 7.550562 1.41573 9.438202
          CHANNELS 3 Zrotation Yrotation Xrotation
          JOINT LeftArm
          {
            OFFSET 9.155056 0 4.247191
            CHANNELS 3 Zrotation Yrotation Xrotation
            JOINT LeftForearm
            {
              OFFSET 0 0 25.771955
              CHANNELS 3 Zrotation Yrotation Xrotation
              JOINT LeftHand
              {
                OFFSET 0 0 25.197169
                CHANNELS 3 Zrotation Yrotation Xrotation
              }
            }
          }
        }
        JOINT RightShoulder
        {
          OFFSET -7.550562 1.41573 9.438202
          CHANNELS 3 Zrotation Yrotation Xrotation
          JOINT RightArm
          {
            OFFSET -9.155056 0 4.247191
            CHANNELS 3 Zrotation Yrotation Xrotation
            JOINT RightForearm
            {
              OFFSET 0 0 -25.771955
              CHANNELS 3 Zrotation Yrotation Xrotation
              JOINT RightHand
              {
                OFFSET 0 0 -25.197169
                CHANNELS 3 Zrotation Yrotation Xrotation
              }
            }
          }
        }
        JOINT Neck
        {
          OFFSET 0 0 15.101124
          CHANNELS 3 Zrotation Yrotation Xrotation
          JOINT Head
          {
            OFFSET 0 0 11.325843
            CHANNELS 3 Zrotation Yrotation Xrotation
            End Site
            {
              OFFSET 0 0 14.157303
            }
          }
        }
      }
    }
  }
}
MOTION
Frames: 14
Frame Time: 0.0
0.0  101.685394  0.0  -121.489756  46.028855  168.022564  60.831822  -23.975471  -61.608501  -32.253383  25.234508  14.007211  -5.727852  -3.057283  -3.767134  -44.188383  40.889579  -44.961678  17.833132  -4.413805  24.551805  -13.524567  -21.894747  -30.426032  -2.720384  -2.740505  2.988632  -7.790366  -7.129608  8.496914  -7.790366  -7.129608  8.496915  -0.364216  29.553223  7.342772  138.567086  32.408502  -175.511121  -47.320522  -12.445872  106.64075  51.750627  26.236181  40.135073  -1.623986  -0.251876  19.87785  66.517019  45.578136  37.694976  -27.836286  17.261341  -149.34257  48.940953  31.525589  36.903131  -6.369656  -15.251921  5.634587  -4.60542  -11.49974  4.03874  
0.0  101.685394  0.0  -119.850043  46.141171  168.907907  61.38908  -27.01412  -62.733196  -26.403363  26.717108  16.5333  -5.422604  -2.794086  -3.928012  -49.24205  37.753993  -49.351223  19.124187  -4.05308  27.235979  -12.623943  -23.330152  -29.18772  -2.744652  -2.654743  3.19329  -7.864713  -6.867834  9.047864  -7.864713  -6.867834  9.047863  -0.383418  29.755548  7.024855  137.364525  33.232952  -172.478251  -46.513393  -13.830066  106.392543  49.161642  26.542305  36.752617  -0.633063  -0.148282  20.112172  63.906671  46.431638  35.598632  -27.624671  16.682693  -150.090743  49.221666  31.219109  36.641218  -5.753951  -15.454381  5.157301  -4.155938  -11.641065  3.695824  
0.0  101.685394  0.0  -118.554337  46.390337  169.576531  61.573138  -28.75937  -63.314123  -23.275681  28.335121  19.351805  -3.270944  -3.094539  -5.107879  -51.997331  35.867556  -52.244017  18.217059  -2.828797  30.207593  -11.134429  -24.575221  -27.958575  -2.687597  -2.519021  3.366699  -7.704082  -6.485492  9.498323  -7.704082  -6.485492  9.498323  -1.603088  29.565355  6.410161  135.656401  34.3168  -170.032829  -45.91428  -16.068675  105.975067  46.088254  26.090501  33.793622  -0.63974  -0.578148  19.950019  61.640281  46.681352  34.010604  -27.822146  16.396897  -150.65279  49.579629  30.730816  36.244428  -5.583347  -15.811861  4.670493  -4.037135  -11.90312  3.3328  
0.0  101.685394  0.0  -117.504208  46.869726  170.505584  62.438818  -27.356951  -63.194476  -19.945118  27.651162  21.929044  -4.672682  -3.35972  -5.412501  -53.81785  34.623748  -54.879597  16.343581  -0.923834  33.330921  -9.156021  -25.65001  -26.885135  -2.744527  -2.368747  3.446752  -7.842749  -6.058359  9.701939  -7.842749  -6.058359  9.701939  -2.496037  29.568019  5.713008  133.370106  35.778089  -168.341469  -45.32891  -18.983484  105.207444  42.484912  24.835247  31.249592  -0.383013  -0.903748  19.673371  59.709065  46.431266  32.81926  -28.591621  16.394793  -151.130229  49.731725  29.936185  35.694025  -5.097505  -16.000613  4.341891  -3.681705  -12.037998  3.098526  
0.0  101.685394  0.0  -116.063438  47.448595  171.611156  65.077168  -23.719855  -62.750265  -20.256415  26.745614  23.163579  -6.636839  -4.059808  -5.525937  -54.073959  34.388948  -56.998914  14.108868  1.294172  36.678146  -7.103741  -26.391418  -26.094778  -2.916311  -2.233275  3.504177  -8.294875  -5.656654  9.854339  -8.294876  -5.656654  9.85434  -2.935353  30.150695  5.162849  130.808359  37.929435  -167.328162  -45.161228  -22.349826  103.98105  38.338448  22.923012  29.5987  0.509115  -0.748211  19.598142  57.807049  45.803004  31.755105  -29.491211  16.44678  -151.488356  49.83722  28.890295  35.112478  -4.21584  -15.923716  4.313791  -3.026325  -11.973611  3.101916  
0.0  101.685394  0.0  -114.206583  47.985715  171.899312  69.06639  -19.817012  -61.727944  -23.482142  25.895706  23.288192  -9.315247  -4.727477  -5.784813  -52.823159  35.53668  -58.063856  12.373537  3.290973  40.273236  -5.147977  -26.596575  -25.748629  -3.185939  -2.116923  3.610216  -9.02019  -5.284448  10.147729  -9.02019  -5.284448  10.147729  -2.314671  31.396511  5.060912  127.072533  40.459844  -167.717902  -44.510698  -25.344977  102.030729  34.149151  20.169137  28.244974  1.809832  -0.089987  20.31672  56.010894  44.925841  30.917519  -30.125522  16.358372  -151.596748  49.870123  27.983882  34.481122  -3.258366  -15.546045  4.843685  -2.302748  -11.686359  3.525495  
0.0  101.685394  0.0  -113.766776  48.236061  170.198613  72.569533  -16.92504  -60.784807  -28.624183  25.945951  23.15744  -10.669277  -5.192731  -6.479683  -51.287178  37.722541  -58.030064  11.394627  4.982757  44.191959  -3.370397  -26.480123  -25.853347  -3.687193  -2.016849  3.72811  -10.379859  -4.915191  10.488793  -10.37986  -4.915191  10.488794  -0.900017  32.761621  5.516445  122.491772  43.292369  -169.297746  -44.136755  -27.769587  99.425209  29.978886  17.159042  27.600892  3.427413  0.712879  21.856897  54.279664  43.851897  30.166947  -29.800516  15.163905  -149.290833  49.733104  28.520475  31.971639  -2.350803  -15.083492  5.875142  -1.604893  -11.336434  4.321351  
0.0  101.685394  0.0  -114.888742  47.781695  168.34905  74.44003  -14.471373  -60.975753  -34.98575  26.707067  22.155719  -9.163744  -4.90553  -6.900264  -50.039604  39.439019  -57.832059  11.017756  5.760141  48.535194  -2.42605  -26.154444  -26.285151  -4.339455  -2.056434  3.57979  -12.157322  -4.944654  10.135299  -12.157322  -4.944654  10.135299  1.189984  34.204118  6.660698  117.84321  46.132793  -171.598661  -42.796156  -29.068594  96.345591  26.34406  13.88343  26.930447  4.886381  1.776171  24.247426  52.829547  42.608487  29.255899  -29.241399  14.685192  -148.789436  49.947791  28.052808  31.772718  -1.652255  -14.541096  7.324966  -1.05494  -10.927385  5.423775  
0.0  101.685394  0.0  -116.078929  47.136023  166.565483  74.818044  -13.764887  -61.733889  -38.679152  27.55782  21.282469  -8.217181  -4.138955  -6.610306  -48.130124  41.348882  -57.049413  11.069055  5.202471  53.000545  -2.567136  -25.534272  -26.875305  -4.96109  -2.07892  3.351279  -13.843297  -4.956306  9.558833  -13.843297  -4.956306  9.558832  3.800235  35.262206  8.673409  113.546713  48.881657  -174.167451  -42.269485  -29.354427  93.711888  23.27801  11.596711  27.566655  5.815456  2.766781  26.918341  51.986094  41.101627  28.54438  -28.395403  14.208228  -148.20948  50.118865  27.641874  31.839259  -1.188706  -14.080181  9.022468  -0.67548  -10.580284  6.704468  
0.0  101.685394  0.0  -117.602776  46.313148  165.235781  74.234303  -13.946611  -63.540895  -39.927826  28.74332  21.487095  -7.010034  -3.412714  -6.335867  -46.683905  42.611847  -56.354515  11.269165  3.649813  57.189147  -3.403944  -24.770723  -27.487353  -5.581162  -2.134769  3.035243  -15.524928  -5.09003  8.753702  -15.524927  -5.09003  8.753702  5.699625  36.331766  9.967396  110.176449  50.848836  -176.993496  -39.79653  -29.992175  91.097636  20.629973  8.317252  27.910753  6.461042  3.670815  29.328212  51.559744  39.498669  28.233154  -27.506367  13.77806  -147.649522  50.21999  27.391205  31.879011  -0.776652  -13.63623  10.645955  -0.338196  -10.244248  7.928668  
0.0  101.685394  0.0  -118.790085  45.853075  163.709092  74.002753  -14.750148  -65.045901  -39.886805  30.173011  22.546785  -6.771449  -3.093725  -6.33051  -45.585216  43.467016  -55.864928  12.118726  1.546824  61.200253  -3.104956  -25.586605  -30.584551  -6.145601  -2.016018  2.679114  -17.026211  -4.783267  7.792346  -17.02621  -4.783267  7.792345  7.746566  36.891734  12.375792  107.58283  52.782368  -179.718722  -37.617926  -30.886547  88.828984  18.553215  4.930494  28.978113  6.987229  4.097903  32.209671  51.364575  37.911932  28.36496  -26.762024  13.426586  -147.181403  50.424439  27.202276  31.738182  -0.589581  -13.372606  12.635105  -0.159162  -10.046579  9.419648  
0.0  101.685394  0.0  -119.707605  45.60628  162.69247  73.84169  -15.46851  -66.119281  -38.506331  31.155663  24.296522  -7.518454  -3.014396  -6.589489  -45.747269  43.516208  -56.594833  13.122611  -0.957817  65.017299  -4.309944  -24.875352  -30.996495  -6.573632  -1.876184  2.395401  -18.159738  -4.430545  7.009942  -18.159739  -4.430545  7.009942  8.483961  37.081681  13.992377  105.388031  54.63041  177.466163  -35.963147  -31.539587  86.987521  16.773874  1.733996  30.112536  7.107216  4.24974  34.185681  51.137469  36.493096  28.794191  -26.363623  13.228106  -146.865121  50.609501  26.974864  31.394869  -0.549037  -13.277015  14.051244  -0.099687  -9.97646  10.478548  
0.0  101.685394  0.0  -120.134822  45.45968  162.258841  73.619871  -16.674723  -66.68989  -36.544403  31.614434  25.67242  -9.148837  -2.660391  -6.856362  -46.37628  43.332507  -58.070167  13.155814  -3.150703  68.50622  -5.12165  -24.23418  -30.821589  -6.760164  -1.750337  2.229247  -18.644396  -4.116415  6.533883  -18.644395  -4.116415  6.533883  7.300835  36.608812  14.168102  102.987031  55.612339  174.534348  -35.219869  -32.245909  85.570197  15.200427  -1.113731  31.17014  6.205337  4.077344  35.204343  50.87968  35.367913  29.317605  -26.348093  13.167695  -146.616209  50.729846  26.642694  30.864352  -0.908488  -13.431826  14.767796  -0.348397  -10.10258  11.004179  
0.0  101.685394  0.0  -120.022821  45.469186  162.518602  73.037408  -18.4517  -66.716251  -33.942344  31.748385  26.55084  -9.732986  -2.479337  -6.839003  -47.339506  42.715618  -60.245686  12.362383  -4.356683  71.677291  -5.233768  -23.710898  -30.053064  -6.898619  -1.681441  2.076565  -19.006647  -3.959685  6.107372  -19.006647  -3.959685  6.107372  6.183039  36.167597  14.195222  99.97829  56.308027  171.290947  -35.381264  -32.760334  84.40433  14.023144  -3.504489  32.105821  5.484648  4.091493  35.882384  50.649183  34.522606  29.892188  -26.562691  13.096248  -146.42131  50.841026  26.162126  30.276743  -1.119778  -13.435896  15.236884  -0.495652  -10.112025  11.349619  
